<mxfile host="app.diagrams.net" modified="2024-04-19T06:51:19.224Z" agent="Mozilla/5.0 (X11; Linux x86_64) AppleWebKit/537.36 (KHTML, like Gecko) Chrome/123.0.0.0 Safari/537.36" etag="Qmz4Lzc5i9TBF2EhBewg" version="24.2.5" type="device">
  <diagram name="Page-1" id="F1WiXJV1eqxnhZPj_Sso">
    <mxGraphModel dx="1434" dy="792" grid="1" gridSize="10" guides="1" tooltips="1" connect="1" arrows="1" fold="1" page="1" pageScale="1" pageWidth="1169" pageHeight="827" math="0" shadow="0">
      <root>
        <mxCell id="0" />
        <mxCell id="1" parent="0" />
        <mxCell id="EvgkgqWLvS6J5Zz-twzB-12" style="edgeStyle=orthogonalEdgeStyle;rounded=0;orthogonalLoop=1;jettySize=auto;html=1;exitX=0.5;exitY=1;exitDx=0;exitDy=0;entryX=0.5;entryY=0;entryDx=0;entryDy=0;" parent="1" source="EvgkgqWLvS6J5Zz-twzB-1" target="EvgkgqWLvS6J5Zz-twzB-2" edge="1">
          <mxGeometry relative="1" as="geometry" />
        </mxCell>
        <mxCell id="EvgkgqWLvS6J5Zz-twzB-15" style="edgeStyle=orthogonalEdgeStyle;rounded=0;orthogonalLoop=1;jettySize=auto;html=1;" parent="1" source="EvgkgqWLvS6J5Zz-twzB-1" target="EvgkgqWLvS6J5Zz-twzB-8" edge="1">
          <mxGeometry relative="1" as="geometry" />
        </mxCell>
        <mxCell id="EvgkgqWLvS6J5Zz-twzB-16" style="edgeStyle=orthogonalEdgeStyle;rounded=0;orthogonalLoop=1;jettySize=auto;html=1;exitX=0.5;exitY=1;exitDx=0;exitDy=0;entryX=0.5;entryY=0;entryDx=0;entryDy=0;" parent="1" source="EvgkgqWLvS6J5Zz-twzB-1" target="EvgkgqWLvS6J5Zz-twzB-5" edge="1">
          <mxGeometry relative="1" as="geometry" />
        </mxCell>
        <mxCell id="EvgkgqWLvS6J5Zz-twzB-22" style="edgeStyle=orthogonalEdgeStyle;rounded=0;orthogonalLoop=1;jettySize=auto;html=1;exitX=0.5;exitY=1;exitDx=0;exitDy=0;entryX=0.5;entryY=0;entryDx=0;entryDy=0;" parent="1" source="EvgkgqWLvS6J5Zz-twzB-1" target="EvgkgqWLvS6J5Zz-twzB-4" edge="1">
          <mxGeometry relative="1" as="geometry" />
        </mxCell>
        <mxCell id="EvgkgqWLvS6J5Zz-twzB-23" style="edgeStyle=orthogonalEdgeStyle;rounded=0;orthogonalLoop=1;jettySize=auto;html=1;" parent="1" source="EvgkgqWLvS6J5Zz-twzB-1" target="EvgkgqWLvS6J5Zz-twzB-3" edge="1">
          <mxGeometry relative="1" as="geometry">
            <Array as="points">
              <mxPoint x="670" y="140" />
              <mxPoint x="940" y="140" />
            </Array>
          </mxGeometry>
        </mxCell>
        <mxCell id="EvgkgqWLvS6J5Zz-twzB-1" value="&lt;font style=&quot;font-size: 14px;&quot;&gt;App&lt;/font&gt;" style="ellipse;whiteSpace=wrap;html=1;aspect=fixed;" parent="1" vertex="1">
          <mxGeometry x="630" y="40" width="80" height="80" as="geometry" />
        </mxCell>
        <mxCell id="EvgkgqWLvS6J5Zz-twzB-17" style="edgeStyle=orthogonalEdgeStyle;rounded=0;orthogonalLoop=1;jettySize=auto;html=1;exitX=0.5;exitY=1;exitDx=0;exitDy=0;" parent="1" source="EvgkgqWLvS6J5Zz-twzB-2" target="EvgkgqWLvS6J5Zz-twzB-6" edge="1">
          <mxGeometry relative="1" as="geometry" />
        </mxCell>
        <mxCell id="EvgkgqWLvS6J5Zz-twzB-2" value="&lt;font style=&quot;font-size: 14px;&quot;&gt;Header&lt;/font&gt;" style="ellipse;whiteSpace=wrap;html=1;aspect=fixed;" parent="1" vertex="1">
          <mxGeometry x="380" y="160" width="80" height="80" as="geometry" />
        </mxCell>
        <mxCell id="EvgkgqWLvS6J5Zz-twzB-3" value="&lt;font style=&quot;font-size: 14px;&quot;&gt;Footer&lt;/font&gt;" style="ellipse;whiteSpace=wrap;html=1;aspect=fixed;" parent="1" vertex="1">
          <mxGeometry x="900" y="160" width="80" height="80" as="geometry" />
        </mxCell>
        <mxCell id="EvgkgqWLvS6J5Zz-twzB-4" value="&lt;font style=&quot;font-size: 14px;&quot;&gt;side bar&lt;/font&gt;" style="ellipse;whiteSpace=wrap;html=1;aspect=fixed;" parent="1" vertex="1">
          <mxGeometry x="520" y="160" width="80" height="80" as="geometry" />
        </mxCell>
        <mxCell id="EvgkgqWLvS6J5Zz-twzB-19" style="edgeStyle=orthogonalEdgeStyle;rounded=0;orthogonalLoop=1;jettySize=auto;html=1;exitX=0.5;exitY=1;exitDx=0;exitDy=0;entryX=0.5;entryY=0;entryDx=0;entryDy=0;" parent="1" source="EvgkgqWLvS6J5Zz-twzB-5" target="EvgkgqWLvS6J5Zz-twzB-9" edge="1">
          <mxGeometry relative="1" as="geometry" />
        </mxCell>
        <mxCell id="EvgkgqWLvS6J5Zz-twzB-5" value="&lt;font style=&quot;font-size: 14px;&quot;&gt;Book list&lt;/font&gt;" style="ellipse;whiteSpace=wrap;html=1;aspect=fixed;" parent="1" vertex="1">
          <mxGeometry x="760" y="160" width="80" height="80" as="geometry" />
        </mxCell>
        <mxCell id="EvgkgqWLvS6J5Zz-twzB-6" value="&lt;font style=&quot;font-size: 14px;&quot;&gt;Logo&lt;/font&gt;" style="ellipse;whiteSpace=wrap;html=1;aspect=fixed;" parent="1" vertex="1">
          <mxGeometry x="240" y="280" width="80" height="80" as="geometry" />
        </mxCell>
        <mxCell id="EvgkgqWLvS6J5Zz-twzB-7" value="&lt;font style=&quot;font-size: 14px;&quot;&gt;Action&lt;/font&gt;" style="ellipse;whiteSpace=wrap;html=1;aspect=fixed;" parent="1" vertex="1">
          <mxGeometry x="460" y="280" width="80" height="80" as="geometry" />
        </mxCell>
        <mxCell id="EvgkgqWLvS6J5Zz-twzB-8" value="&lt;font style=&quot;font-size: 14px;&quot;&gt;Sorting&lt;/font&gt;" style="ellipse;whiteSpace=wrap;html=1;aspect=fixed;" parent="1" vertex="1">
          <mxGeometry x="630" y="160" width="80" height="80" as="geometry" />
        </mxCell>
        <mxCell id="EvgkgqWLvS6J5Zz-twzB-20" style="edgeStyle=orthogonalEdgeStyle;rounded=0;orthogonalLoop=1;jettySize=auto;html=1;entryX=0.5;entryY=0;entryDx=0;entryDy=0;" parent="1" source="EvgkgqWLvS6J5Zz-twzB-9" target="EvgkgqWLvS6J5Zz-twzB-10" edge="1">
          <mxGeometry relative="1" as="geometry" />
        </mxCell>
        <mxCell id="EvgkgqWLvS6J5Zz-twzB-21" style="edgeStyle=orthogonalEdgeStyle;rounded=0;orthogonalLoop=1;jettySize=auto;html=1;exitX=0.5;exitY=1;exitDx=0;exitDy=0;entryX=0.5;entryY=0;entryDx=0;entryDy=0;" parent="1" source="EvgkgqWLvS6J5Zz-twzB-9" target="EvgkgqWLvS6J5Zz-twzB-11" edge="1">
          <mxGeometry relative="1" as="geometry" />
        </mxCell>
        <mxCell id="EvgkgqWLvS6J5Zz-twzB-9" value="&lt;font style=&quot;font-size: 14px;&quot;&gt;book card&lt;/font&gt;" style="ellipse;whiteSpace=wrap;html=1;aspect=fixed;" parent="1" vertex="1">
          <mxGeometry x="760" y="280" width="80" height="80" as="geometry" />
        </mxCell>
        <mxCell id="EvgkgqWLvS6J5Zz-twzB-10" value="&lt;font style=&quot;font-size: 14px;&quot;&gt;Ratting&lt;/font&gt;" style="ellipse;whiteSpace=wrap;html=1;aspect=fixed;" parent="1" vertex="1">
          <mxGeometry x="700" y="400" width="80" height="80" as="geometry" />
        </mxCell>
        <mxCell id="8VdfMdQEPRQ0YVUC_6qU-2" style="edgeStyle=orthogonalEdgeStyle;rounded=0;orthogonalLoop=1;jettySize=auto;html=1;exitX=0.5;exitY=1;exitDx=0;exitDy=0;entryX=0.5;entryY=0;entryDx=0;entryDy=0;" edge="1" parent="1" source="EvgkgqWLvS6J5Zz-twzB-11" target="8VdfMdQEPRQ0YVUC_6qU-1">
          <mxGeometry relative="1" as="geometry" />
        </mxCell>
        <mxCell id="EvgkgqWLvS6J5Zz-twzB-11" value="&lt;span style=&quot;font-size: 14px;&quot;&gt;Modal&lt;/span&gt;" style="ellipse;whiteSpace=wrap;html=1;aspect=fixed;fillColor=#fff2cc;strokeColor=#d6b656;" parent="1" vertex="1">
          <mxGeometry x="840" y="400" width="80" height="80" as="geometry" />
        </mxCell>
        <mxCell id="EvgkgqWLvS6J5Zz-twzB-18" style="edgeStyle=orthogonalEdgeStyle;rounded=0;orthogonalLoop=1;jettySize=auto;html=1;entryX=0.588;entryY=-0.05;entryDx=0;entryDy=0;entryPerimeter=0;" parent="1" source="EvgkgqWLvS6J5Zz-twzB-2" target="EvgkgqWLvS6J5Zz-twzB-7" edge="1">
          <mxGeometry relative="1" as="geometry" />
        </mxCell>
        <mxCell id="8VdfMdQEPRQ0YVUC_6qU-1" value="&lt;span style=&quot;font-size: 14px;&quot;&gt;Book card details&lt;/span&gt;" style="ellipse;whiteSpace=wrap;html=1;aspect=fixed;" vertex="1" parent="1">
          <mxGeometry x="840" y="500" width="80" height="80" as="geometry" />
        </mxCell>
        <mxCell id="8VdfMdQEPRQ0YVUC_6qU-5" style="edgeStyle=orthogonalEdgeStyle;rounded=0;orthogonalLoop=1;jettySize=auto;html=1;exitX=0.5;exitY=1;exitDx=0;exitDy=0;entryX=0.5;entryY=0;entryDx=0;entryDy=0;" edge="1" parent="1" source="8VdfMdQEPRQ0YVUC_6qU-3" target="8VdfMdQEPRQ0YVUC_6qU-4">
          <mxGeometry relative="1" as="geometry" />
        </mxCell>
        <mxCell id="8VdfMdQEPRQ0YVUC_6qU-3" value="&lt;span style=&quot;font-size: 14px;&quot;&gt;Modal&lt;/span&gt;" style="ellipse;whiteSpace=wrap;html=1;aspect=fixed;fillColor=#fff2cc;strokeColor=#d6b656;" vertex="1" parent="1">
          <mxGeometry x="350" y="280" width="80" height="80" as="geometry" />
        </mxCell>
        <mxCell id="8VdfMdQEPRQ0YVUC_6qU-4" value="&lt;font style=&quot;font-size: 14px;&quot;&gt;cart&lt;/font&gt;" style="ellipse;whiteSpace=wrap;html=1;aspect=fixed;" vertex="1" parent="1">
          <mxGeometry x="350" y="400" width="80" height="80" as="geometry" />
        </mxCell>
        <mxCell id="8VdfMdQEPRQ0YVUC_6qU-6" style="edgeStyle=orthogonalEdgeStyle;rounded=0;orthogonalLoop=1;jettySize=auto;html=1;exitX=0.5;exitY=1;exitDx=0;exitDy=0;entryX=0.588;entryY=-0.025;entryDx=0;entryDy=0;entryPerimeter=0;" edge="1" parent="1" source="EvgkgqWLvS6J5Zz-twzB-2" target="8VdfMdQEPRQ0YVUC_6qU-3">
          <mxGeometry relative="1" as="geometry" />
        </mxCell>
      </root>
    </mxGraphModel>
  </diagram>
</mxfile>
